<svg version="1.1" xmlns="http://www.w3.org/2000/svg"
	width="500px" height="500px"
	viewBox="0 0 500 500">
<g transform="translate(23, 477) scale(1,-1)">
	<path d="M 18.1,0.3 L 0,0 56.8,0 Z M 18.1,0.3 L 56.8,0 52.9,33.4 Z M 90.9,0 L 52.9,33.4 56.8,0 Z M 90.9,0 L 143.1,66 52.9,33.4 Z M 0,0 L 18.1,0.3 52.9,33.4 Z M 0,454.5 L 0,0 52.9,33.4 Z M 170.5,0 L 143.1,66 113.6,0 Z M 181.8,0 L 143.1,66 170.5,0 Z M 272.7,0 L 222.1,55.7 227.3,0 Z M 181.8,0 L 227.3,0 222.1,55.7 Z 
	M 299.3,20.2 L 256.9,96.8 222.1,55.7 Z M 113.6,0 L 143.1,66 90.9,0 Z M 143.1,66 L 181.8,0 222.1,55.7 Z M 0,454.5 L 52.9,33.4 160.9,115.4 Z M 143.1,66 L 160.9,115.4 52.9,33.4 Z M 160.9,115.4 L 143.1,66 222.1,55.7 Z M 56.8,454.5 L 0,454.5 160.9,115.4 Z M 160.9,115.4 L 90.9,454.5 56.8,454.5 Z M 160.9,115.4 L 113.6,454.5 90.9,454.5 Z M 113.6,454.5 L 160.9,115.4 170.5,454.5 Z 
	M 218.5,107.2 L 222.1,55.7 225.8,108.5 Z M 218.5,107.2 L 160.9,115.4 222.1,55.7 Z M 272.7,454.5 L 227.3,454.5 225.8,108.5 Z M 225.8,108.5 L 227.3,454.5 160.9,115.4 Z M 181.8,454.5 L 170.5,454.5 160.9,115.4 Z M 227.3,454.5 L 181.8,454.5 160.9,115.4 Z M 256.9,96.8 L 334.9,92.8 225.8,108.5 Z M 225.8,108.5 L 160.9,115.4 218.5,107.2 Z M 222.1,55.7 L 256.9,96.8 225.8,108.5 Z M 272.7,0 L 299.3,20.2 222.1,55.7 Z 
	M 299.3,20.2 L 284.1,0 340.9,0 Z M 327.1,75.3 L 299.3,20.2 340.9,0 Z M 340.9,0 L 363.6,0 357,67.8 Z M 397.7,0 L 384.5,65.6 363.6,0 Z M 363.6,0 L 384.5,65.6 357,67.8 Z M 256.9,96.8 L 299.3,20.2 327.1,75.3 Z M 454.5,0 L 440.1,45.9 397.7,0 Z M 450.3,81 L 451.1,41.2 454.5,0 Z M 451.1,41.2 L 440.1,45.9 454.5,0 Z M 432,65.6 L 416.3,53.1 440.1,45.9 Z 
	M 397.7,0 L 440.1,45.9 416.3,53.1 Z M 440.1,45.9 L 450.3,81 432,65.6 Z M 384.5,65.6 L 416.3,53.1 432,65.6 Z M 450.3,81 L 440.1,45.9 451.1,41.2 Z M 384.5,65.6 L 397.7,0 416.3,53.1 Z M 398,113.3 L 384.5,65.6 432,65.6 Z M 334.9,92.8 L 327.1,75.3 335.8,92.1 Z M 357,67.8 L 335.8,92.1 327.1,75.3 Z M 334.9,92.8 L 398,113.3 284.1,454.5 Z M 334.9,92.8 L 284.1,454.5 225.8,108.5 Z 
	M 284.1,454.5 L 272.7,454.5 225.8,108.5 Z M 284.1,454.5 L 398,113.3 340.9,454.5 Z M 398,113.3 L 334.9,92.8 335.8,92.1 Z M 334.9,92.8 L 256.9,96.8 327.1,75.3 Z M 357,67.8 L 384.5,65.6 398,113.3 Z M 450.3,81 L 398,113.3 432,65.6 Z M 454.5,454.5 L 398,113.3 450.3,81 Z M 340.9,454.5 L 398,113.3 363.6,454.5 Z M 398,113.3 L 397.7,454.5 363.6,454.5 Z M 398,113.3 L 454.5,454.5 397.7,454.5 Z 
	M 454.5,454.5 L 450.3,81 454.5,0 Z M 357,67.8 L 398,113.3 335.8,92.1 Z M 357,67.8 L 327.1,75.3 340.9,0 Z M 299.3,20.2 L 272.7,0 284.1,0 Z " style="stroke:#c2c2c2; fill:none; stroke-linejoin:bevel;"/>
	<path d="" style="stroke:#4682B4; fill:none; stroke-linejoin:bevel; stroke-width:2px;"/>
	<g style="fill: #006400">
		<circle cx="398" cy="113.3" r="3" />
		<circle cx="416.3" cy="53.1" r="3" />
		<circle cx="327.1" cy="75.3" r="3" />
		<circle cx="440.1" cy="45.9" r="3" />
		<circle cx="52.9" cy="33.4" r="3" />
		<circle cx="432" cy="65.6" r="3" />
		<circle cx="357" cy="67.8" r="3" />
		<circle cx="450.3" cy="81" r="3" />
		<circle cx="335.8" cy="92.1" r="3" />
		<circle cx="218.5" cy="107.2" r="3" />
		<circle cx="160.9" cy="115.4" r="3" />
		<circle cx="143.1" cy="66" r="3" />
		<circle cx="225.8" cy="108.5" r="3" />
		<circle cx="299.3" cy="20.2" r="3" />
		<circle cx="18.1" cy="0.3" r="3" />
		<circle cx="451.1" cy="41.2" r="3" />
		<circle cx="256.9" cy="96.8" r="3" />
		<circle cx="222.1" cy="55.7" r="3" />
		<circle cx="384.5" cy="65.6" r="3" />
		<circle cx="334.9" cy="92.8" r="3" />
		<circle cx="0" cy="0" r="3" />
		<circle cx="0" cy="454.5" r="3" />
		<circle cx="90.9" cy="0" r="3" />
		<circle cx="90.9" cy="454.5" r="3" />
		<circle cx="181.8" cy="0" r="3" />
		<circle cx="181.8" cy="454.5" r="3" />
		<circle cx="272.7" cy="0" r="3" />
		<circle cx="272.7" cy="454.5" r="3" />
		<circle cx="363.6" cy="0" r="3" />
		<circle cx="363.6" cy="454.5" r="3" />
		<circle cx="454.5" cy="0" r="3" />
		<circle cx="454.5" cy="454.5" r="3" />
		<circle cx="0" cy="0" r="3" />
		<circle cx="0" cy="454.5" r="3" />
		<circle cx="56.8" cy="0" r="3" />
		<circle cx="56.8" cy="454.5" r="3" />
		<circle cx="113.6" cy="0" r="3" />
		<circle cx="113.6" cy="454.5" r="3" />
		<circle cx="170.5" cy="0" r="3" />
		<circle cx="170.5" cy="454.5" r="3" />
		<circle cx="227.3" cy="0" r="3" />
		<circle cx="227.3" cy="454.5" r="3" />
		<circle cx="284.1" cy="0" r="3" />
		<circle cx="284.1" cy="454.5" r="3" />
		<circle cx="340.9" cy="0" r="3" />
		<circle cx="340.9" cy="454.5" r="3" />
		<circle cx="397.7" cy="0" r="3" />
		<circle cx="397.7" cy="454.5" r="3" />
	</g>
</g>
</svg>
